<mxfile host="app.diagrams.net" modified="2020-07-23T16:05:21.153Z" agent="5.0 (Windows NT 10.0; Win64; x64) AppleWebKit/537.36 (KHTML, like Gecko) Chrome/83.0.4103.116 Safari/537.36" etag="VbQXa__phXOEtgwQnwJf" version="13.5.1" type="github">
  <diagram id="zo3ed0p4VhtMtGtI7FCP" name="ページ1">
    <mxGraphModel dx="1278" dy="548" grid="1" gridSize="10" guides="1" tooltips="1" connect="1" arrows="1" fold="1" page="1" pageScale="1" pageWidth="827" pageHeight="1169" math="0" shadow="0">
      <root>
        <mxCell id="0" />
        <mxCell id="1" parent="0" />
        <mxCell id="yOnUQN1H6J_XqPmwmMl5-2" value="" style="shape=image;imageAspect=0;aspect=fixed;verticalLabelPosition=bottom;verticalAlign=top;image=data:image/jpeg,/9j/4AAQSkZJRgABAgAAZABkAAD/7AARRHVja3kAAQAEAAAAMgAA/+4ADkFkb2JlAGTAAAAAAf/bAIQACAYGBgYGCAYGCAwIBwgMDgoICAoOEA0NDg0NEBEMDg0NDgwRDxITFBMSDxgYGhoYGCMiIiIjJycnJycnJycnJwEJCAgJCgkLCQkLDgsNCw4RDg4ODhETDQ0ODQ0TGBEPDw8PERgWFxQUFBcWGhoYGBoaISEgISEnJycnJycnJycn/8AAEQgA3QD6AwEiAAIRAQMRAf/EALcAAAEFAQEBAAAAAAAAAAAAAAABAgMGBwQFCAEBAAMBAQEAAAAAAAAAAAAAAAECBAMFBhAAAQMCAwQFBwcIBggHAAAAAQACAxEEIRIFMVETBkFhcSIHgZGhsTJSFMFCYnLSIxWSsjOzwzR0NdGCQ3OTF+GiU2MkVBY28OKDRLQlVREAAgIBAwIEBAELBQEAAAAAAAECAxEhEgQxQVFhcQWBIjITkaHB0UJSYnLSMxQVsYKiskMW/9oADAMBAAIRAxEAPwDaCTU4oqd5Qdp7UiAWp3lFTvKRCAZGRnlyuJJeM43HI3AeSikqd5UbD3pO5lo7b73db3vk8iegFqd5RU7ykQgFqd5RU7ykQgFqd5RU7ykQgFqd5RU7ykQgFqd5RU7ykQgFqd5RU7ykQgFqd5RU7ykQgFqd5RU7ykQgFqd5RU7ykQgFqd5RU7ykQgFqd5XDLestLWLhuMhLG8KvSKe05dqrs7n3Fy1uXhk5Y2x9Ddgy+dAOzXt+44uk3itGj5EOsb2AcQMIptLDU+jFe7DEyGNsbBRrR5+tPQHk2OpyBwiuHFzTg152g9a9qp3/ADV4Oq27Y5GzMFBJXMBvHT5VH+Izbz+i4P8A5u1SQe+dp7UiU7T2pFBIIQhAMZXNJV2YF2A90ZW4fKnqOMszzZQQQ8Z69JyN2eSikQAhCEAIQhACEIQAhCEAIQhACEIQAhCEAIQhACEIQAhCEAKuy57e6DnuzuaWvzjY7Y6vlViXn3Fmy6tYn24yuaxvDB6W0waUB3Me2Rgew1a4VBTlXori6snFgq3fG8YKWTVrl7crQ1lekDH0pgEmrztc9kLTXJUu7T0Lj+Em3f2fG/qros9PkuHiSYFsdamu1y93I33R7GXyblJBG6N+A4rhlOJo3vdvd9SMjs5dxHUIwZ3aDr2V9KkO09qRQSRiN+Qt4zySa56MqOr2aehKWOJaeI4Bu0d2ju3u+pPQgImMlzyl8jspP3Q7uAoMRhvrtSmN+QN4zwQa56Mqer2aehEYbnlo6pLhmHunK3DzYqRAMLHZw/O4NH9n3cp9FfSkEbwHDiuJdsJDat7O761IhARmN5DRxXAt2kBtXdvd9SUMdnL87i0/2fdyj0V9KehARiN+Qt4zySa56MqOr2aehLkdVp4ru7tFG9763d9VE9CAYGOBceI4h2wd2jezu+tIY35A3jPBBrnoyp6vZp6FIhAMyOzh3EdQDFndoevZX0rJIOcucbltxJFfW0cbZXxt4sbQ5uWns5WEfOG1a8sFsf3W4/iJv2S0cWuM5tTWUlkw+43WVVRlW9rcks9dD3zzXzplA/E7MFpOZ3DFTQOca/dbo3bNysnI+v63q+o6nbavOyT4MRhjImNawF2aprlDj7PSqC/Y/wCtJ+rvFb/Dv+e8wf8Ao+t67cmmuFW6EcPcl1MvA5d9nI+3ZPctjl0xqmkaEI35C3jPJJrnoyo6vZp6EuR1Wniu7u0Ub3vrd31UT0LCewMyOq48RxDtg7tG9nd9aThvyBvGfWtc9GV7PZp6FIhAMyOzh2d1AKFndoes4V9KBG+jhxXHNsNG93s7vrT0ICMxvo0cV4Ldpoyru3u+pOyuzl+d2Wnsd3L27K+lOQgIxG8MLeM8knB9GVHV7NPQkjZKY4jJI4Pa0cQDLRzqY1w9SlUcAaIYw12duVuVx6RTagEdCHl3EcXh2xrg0hvZ3fWmNs42tAYcrga8QNjDuz2KehdCEAzI7OHZ3UAoWd2h6zhX0p3Df/tX+9sZs932dnpSp/2UA07T2pEp2ntSIAQhCAYw96XuZaOGPvd1ve+TyJ6YzNmkzOBGbujcMowPlxT0AIQhACEIQDJnmOGR7drWlwrvAqskg8RObLiMSsFk1rjQBzHA1qG+/vIWs3P7tN9R3qK+frH91g+v+2hWni1wslJTWUo5PP8AcuRbTXXKppOU1F5WdMN/mLZ/19zbStbCm32X9ND73Wnwc9c4XDXOabBoY90ZzteMWkNNO9vcFVR7H9Vn5ka67X9HJ/ES/r7da/7WnP0vo+55a9y5eNZrVr9UsZ515wAqZNOA7H7s3vbgqpaPubZlxBJFDIWzyZy57m945M1MvRgF0zewfq/sXrnn/TXn8RL+zV4U1wlugmu3XJS7l32wUbWpJ4a0xh/BkxuZMa21viXV+9ftIkDvQ56tnhk+STVtcklAbI4QlzWmoBq/ZVUd2x3a/wDMuFefDL+b652Q+t65czWnP7y8PA7+1actrC/pt51z1Xi2aUhCF5p9ACEIQFc5u5pZy3aRiGMXGo3Ry2ltiQaEZnuy40FfKVPy1zPYcy2plt6w3MVBc2jz343fK3cVQtdnOpc7X0j+9Hp0bLeEHoNKu/1nPXDdfFaTdx8waUcl1bms7B7Msfzg8dOG3+kLbDhSnxvvReuun7qPLs90hXzf7Wawmkt3hN9EbOhcek6lb6xp1tqVsfurhgeBtLTscw9bXVBXYsR6gJkJrDGcnDq0fd+7h7PkT0yLMImB7g52UZnDYTTEoB6EIQAn/ZTE/wCygGnae1IlO09qRACEIQEceTPNlrXOM9d+RuzyUUiYzPmkzAAZu4d4yjb5ap6AEIQgIbuZ1vaTzsALoo3vaDsq1pcKrK4fErmudjZI7SwyuwbVsgJxpsM+9ahqX8uvP7iT8wrBLH92tvrD9aFp4tULJSU84Szoef7lybePXCVWMynteVlYw35eBbH+IfNkjHMNrp9HDKSM/wA4D/f/AEgqrp8N2bZgbAx7WvIa50rWEuD2YUP0w0JzPZ/I/Ntl1WP7tB/fn/5VuttdMK5Nw3L5Xno+/mjyLeXbfWlcoSxOONJRxmL10kR8C7y/u0VKD/3DdlG06d1E21ubiITRvtWPInkrWUNo7Owub10c1uK6h+iP1I/1UK5H/prn+Jm/XRLq0853PRP9n+Uz5SjjZHVrvZp/zJXXchBDrKOlP+YHulv5pKhiF5cOuZfh2EOneXZpQyjjkzNFdtMMVHJ7J7P2bl2W/wChuf4iX9io1z9T0/h/lJTWMOEdUu9mmq/fIjb3WNbaLaa/8Q3dJXp3F/8A4C6dF13W+Xr2/msoLYvnc1kzbgkhpYC7ulr4/eTX7H/Wk/V3i5r395vP79/6pVsrjOKUm2t3T5V28kdabpU2OVcYqTh1e+WmVp80mWf/ADF5t/5XT93z9or/AL/6JVi5K5t1bmC/vbPU4beL4aNr2/DteCS40xLpHjYs0dtd9d/59wrh4Z/z7Vv7iL1hZeRx64V7op5ylqz0OBzuRdyHVa4tKLeiaeU0vF+JqCEIWE9kx+Rpi5q5gifg51wHgfRcXOHocF1EBwLXCoOBHUp+fLT8H5ht9eH7rqDOBdbxIwAB1PqhvmK5HzsbGJAQ4OFWU2GvSvf9usjLjqC6wymvXU+O97plXy5Wv6bEmn/CsYI+VudGcsWV3pElpNevjuZHQCMjKG4NLScT7Ta7Oley3xSnzfeaDK2P3mzZj+Twh61WjtJoAXEk0wxO1JsXP/FVvLc3r4Iv/wDSXLCjVHCSWry2aDo/iDy9q0otnSPsbl2AiugGAncHglvnIVmt8hgiMVeHkbkrty0wWK6VpDubNYisYG1srYiS+uQNjPca7e7YPP0LardnDt4oywR5WNbkbg1tBTKKdAXlX1wrscIS3pdz6Xh323URttr+1KSztbyyRCELiaQT/spif9lANO09qRKdp7UiAEIQgI4wM8tHZiXio905G4fKpFHGRnl7uWjhU+93W975PIvH5o5kteWtP+LlLZJ3PY2G2rR0gzDPl3UZXHYgbxqz3Fneq+IeqWer32nWWnRXEdnJw+IXkE03+UFWvRuadD12NrrG7ZxXbbaQhkwO7IdvaKhZZe4cz69X/mnfnPWjiUxtujXPKTz066LJh9y5U+NxJ31Yco7cZ6ayS/Oe7Nz7zJd20sI0aINmY6MuEhwzAt3qnW1rqUELInWDnlhqHcRo+dn2YqwRXEEEGaaRsbQTi4getRW+tadczOhjlAcMGl/dDvq1Xqx4dFM8RtcZS0w3HX4NHz1nuPK5dWZ8eNkIfM3FTST6dYyXieQIL8Cg01/R/at6Mg3f7sKS0GoW8LYpNMdIWvMjXCVrdr2S0pQ9LArElXf+21z9yXh0h3/2mVcxJOP2IYbT+q3qun654We8y5fwl9KAfp27GhrR83cwLlEGpZ5Xv09x4kr5R940UzuD6bOgtCsrnsY0ue4NaNpJoF5V5zDY2zmsjPxDq0fw9gHSc2wqllUILdO5x+EP9Np0qtsueyriqfpK3THnv0PPNvfuFDpr/wDFbuLd24qS3GoxMlZJpjpOJI6UUla2mbLhsPuL27W9tbxua3la/e35w7W7V0Ky46klKNra8UoY/wCpR8pwbhLjxi1o05W5X4z0PBLrs1rpL8SSfv2/OEjT83dK5cz4dSllnkfpziJnmQNErRSrclNmKsrntY0ue4NaNriaALyZ+Y7CK4bC0mSPHiTNxDd1PeVbKq4Y+5c466ZUP5TpTbba5KriqemuJW9Fr13nCYb81/8ArXYkn9K3aS87vplehoGp65y/fXV7b6aJTdMawskeO6G9bSu+C7trkB1vK2SvQ0ivlG0KdJcSFsUnZKUeum38yIq9ws41jlCiMJ4w9zsbw/KUmdn+YHM3/wCLF/iH+lctxzXzxfDIz4bTWnAujbnfTteZR6k1c15f21jGXzvAPzWfOPYFz/xvGj80pSwvFpI0/wCc51nyQjDL6bYty+GpyO01r5jfavcyahc9DpiSOwNJP9C57+7maY2ws4lxM9sUEW8k0oER6lb3vebIA4/2bjQjqovZ5G0z8a5hfqkrc1lpWER6HTn2fycXeZWutq4/Hbo2py0i46/E4cWjk87nKHMU3Gv5pqaxp2WPNnO3lfnl5ynTIo6/PdNEQPyZSV6dj4bareOa7XtQbFBtdbWmLiNxe4ADzOWjXV7Z2MRnvZ47eIbXyuDBh1uKrNl4gaNqGvt0i2kAt3McG3knca+YFuWNmamBGbE7TSi8ifL5FixKba79j6Wr23g0yUoUwUuzay/hksGl6Vp+jWjbLToWwwtxoMS4+89xxce1dMAAgiDXZ2hjaP3im3yqRRwEGGMhuQFraM93D2fIs5uJEIQgBP8Aspif9lANO09qRKdp7UiAEIQgOK6s5rviM+NmtmE0AtzGHUyja58bnA13FVu58NtCvJjcXdzezzO9qSWcPcfK5hKtseTPNlrXOM9d+RuzyUUinLIaT6lI/wAq+Wffuv8AEb9hZ9zLocWicxXGnQvl+HLGSwPe7vuDmitSAK97Mt4Wc+KWlu4dlr8Ta/DH4e5pt4bzVh8jqjyrrRNK2Lnqs6+hn5dTlx7I16S2vbjx7GfR6bbSE5i8nfX/AEKT8Jtd7/OP6E9j6EPbiNo7F1ggio2Fe6uNQ/8Azj+B8dLncxP+tNfE5o7JsIpFPNGPovI9SeYJSKG7uCNxlcpkK6prWiikcny+Q3l2NvxZxv0yCQ1kfI473Or6wm/hNrvf5x/QvVDrW0sZ9TvI3TRxSRwMgjcGF0koe4Fz6OytDYndGKnvo9OdBbX2lSufbXALXseDVkrAwyMBcGktGfA0XDbxXb9nYt3p8TXv9xXGXJVslXnH1a9cZx6niDSrZpqC8EbCHf6FO2CRoo26uANwlcFMhdlRUukEvQyy5vJl9VspeupySafFKayySvP0n19aZ+E2u9/nH9C7kKHxqXq64slc/lpYV00vJnCNJtQagvr2/wChTstXR+xczt+rIR6lM5zWipKhfKXYNwHpUqildIJegfM5U/qtk156jJWOplN1cPO4yuIXIbCFxqS4k7SSupRTTNhZmdiTg1vSSqzqpScpxWF3Z1q5HKclCqyW6Twku5zjTTcXENlZMdLd3DgyKMHpO9axY+Gul2trHE+9vGy0BmMM3DY6SgzOa0NUfIPKT9Mj/G9VZTUrhtIonbYYz6nuG3cMN6vK8K+yMrG64qMeyR9dw6J10xV03ZN6yb8fBFLk8MOXZXF8st2952udMCfOWJn+VfLPv3X+I37Cu6Fy3PxNG2PgeLpvLjdKa2O01O+4TcBFLKyVgG4CSN2Udi9eEPEUYkcHvyjM4bCaYlPUdvk4EXDrkyNyV20phVQWwSIQhACf9lMT/soBp2ntSJTtPakQAhCEAxmbNJmaAM3cI6RlbifLUJ6jjAzy97NVwqPd7re78vlUiAFzahY2+p2U9hdtzwXDDHIOmh6R1g4hdKEBgd/pWo6JqkmhywSXEzSTamJpcZYzUte1oqTgPJs6ErYtTidlfpl4D0tMD6+pbBzLy5bcw2jWOeYL23PEsrxmDo3+THKaYqtafzJdaZdDRObW/C3jcIL44QTtGAdmwArv2b6Fba+ddGKimtFjVHk8j2njTnKbg/meXh41KbHZ61N+h0a+dXEEwPAp2kUXfb8rc3XZAZpot2n+0uJWgDta05vQtPa7Y5h24ghTNuZR0g9qvLm8h/rY9EjlH2rhReft7vWUjIWtvtKlubC/bFK7MY7iB7c0Tspq3B27a121MnuXziNpayOKJuWKGJoZGwVqcrRvOJPSrrzjo8l8z8UtI63ETaTxt2vYNjh9JvqWfcc+6vR40q7IqxJb0sSb+r8Tw+dXfTZKht/acnKCWkMeUfImQoDM/ooEwvc7aVpMOxnQ6Rjdp8ijdMT7Ip1qJCgsooCScTihNfIyMZnuDR1rp0rSdZ5hl4WkWx4VaPvJO7E3+sfUKnqXK2+upZnLXw7mrj8O/kPFUG1+09Ir4nHLMIy1jQXyvIDI24uJOAFAtD5M5FfbyR63zAwG7FHWtk7ERbnv+luHR27PZ5Y5H03l+l1L/wAZqRHeupBgwnaImmuXt2+pWleNyeZO54XyxXb9J9RwPba+Ktz+ex9ZeHkgQhCyHoghCEAJkWYxML2hr8ozNGwGmICeo4ABDGA7OA1tH+9h7XlQEiEIQAn/AGUxP+ygGnae1IlO09qRACEIQEcZGeWjcpDxU+8cjcfkUiYzPmkzEEZu4Nwyjb5ap6AEIQgBcWp6Tp+s2rrPUoGzwnEB21p2ZmOGLT1hdjXteKscHDZUGqVAUJ/K3M3LxLuWL0XtkDUabenFo3RvqB6W+VR/9bSae4RcxaTdae/ZxA3iRHrDjl9FVoKQgOBBFQcCCrKb9TnKqL6aFPg5z5ZuACzUGMJ6JA6P89oXh63ZcsamXXlhq1nb3TqlzXTRhjzvIzVaetXm45b5fuqm40u1e47XcFgd+UACuJ/I3KbzU6XGD9Fz2jzNcF1rvlXLdBtMz3cKu6OyxKS/KvRmPzvit5HRPmjcW7XRyNkaexzC4FQG8tm/Pr2AlbUzkvlWOmXSoDl2ZgXefMTVd1voOiWpBttNtYnDY5kMYPny1Wp+52Y0hH8pgXsFGdbJ48sfoMMtm3t8cunWM90Th91G5w87QV79jyHzZqBBmji06I7XTODn06msznz0WxgBoAAoBgAEq4z5189N21eWhqq9o4deuze/GXzfk6FK0jw00Sxc2fUXP1O4GP3vdir/AHYOP9YlXOOKOGNsULGxxsFGMYA1oA6ABsTkLK228t5PQjGMViKSS8AQhCgkEIQgBCEIAUcBBgiLW5GljaM3CmzyKRMiz8JnEIL8ozkbCaYoB6EIQAn/AGUxP+ygGnae1IlO09qRACEIQEceTPNlJrnGeu/I3Z5KKRRGVsLZ5Z8sUUZzGRxDRlDAS9xO7FZpzB4qPbK+25fhaY2mnxk4JzdcceFB1u8ylJvoQ5JdTUF4fOMj4uV9UfG4sdwHDM00NDRp9BWUDxF5xa4Sm9Bjr7Jgiy9lQwH0r1J/Ed2r6Df6Vq1u2O5nhLYZ4K5HOwOV7CSW9oKnayn3E0zt8IZZOJqsGY8ICF4Z0BxLwT5gtSWVeEP7zqv1IfXIrrzPzdpvLELfiKzXcgJgtGEZiPecfmt6/MkvqJg8QTZYELE7zxN5pu5f+EfFaNJoyOKJrz55g+pTrHxP5ltZB8YYr2MHvsfGI3eR0QbQ+QpsY+5HzNqQvG5c5m07mW0NxZksljoLi2f7cZPrB6CvXkkjhjfLK8MjYC573GjWtGJJJ2AKpdPOo5Cy/mDxUe2V9ty9E0sbgbycE16448MOt3mVb/zB50aBKb08Mmorbw5eyvD+VW2so7I+puiyTxbml/FbCDOeE23L2srgHOe4F3bRoXv8j893XMF27S9RgY24EZkZcQ1DXBpAIe01ocdtaKu+Lf8AOrH+F/aPSKxLUibThlGmcvySTaBpU0ri+SSzt3ve41LnOiaSSd5K9JV2x1ex0Tk7TNQ1CTJCyxtgAMXPcYW0YwdLiqhoPP8Ar+t8zwWkcLPgLh5abZramOMA1eZNtW7T0dSjDeS25LC8TUULl1HUbPSrOW/v5RDbxCrnHp3NaOknoCyrWvFTVLiR0eixts4B7MsjRJMeujqsb2UPaiTYlJLqa+hYZD4hc42kgfNdcVpNeHPDGGn8lrHeYq/8qeIVnr0rbC+jFnqDsIwDWKU7mE4td9E+dS4tBTT06F0QhVPmrnzT+XHG0ib8ZqNKmBpo2Ouwyuxp9UY9iqlkltLVlsUdvkEEQjJLMjchO2lMKrF5fE3muaYGF8MQJwhjiDgerv5nelbFpk09xptnPdRcC4lgifNCARke5gc5lDsynBS00RGSfQ6kIQoLAn/ZTE/7KAadp7UiU7T2pEAIQhAZp4p6xLbwRaLBKaXTjNcgHYxgaGR9hdVyXw85Ls32UevarC2eWaptIJACxjAaCRzTgXOphXYF43itG4a9bzZSGOt2sqdhc1znEjyPaFpnKtxDdct6VLARkFrFGQNgdG0Rvb5HNIV+kVjuc0szeex6joonxmF7GuiIymMgFpG7Lsosq8Q+S7TTYPxzSYxDBmDbu2bgxpcaNkYOgE4EeZawqx4g3UNtynfiYis4ZDE09L3PBw7AC7yKsXqWmk08lO8J5o7d+szymkcUMT3nc1vEcVWbaK+545opI8h95IXyP2iKFuNB1NaKBWDw4t5ZdM5lcxtc9qImDe5zJsAuTwtuIYeZnRykB09tJFFXpeHMkw/qsKv3kzn1UV2NZ0nQ9L0S3bbadbtiaBR0lAZHn3nv2kqDXeWtK5gtnQ30DeKR93ctAErDTAh3yHBeuhc8nXCxgwWwnvOR+bOHM6otpODc5cBJA+hrTraQ4dau3itrMttY2ukQOyi9LpLgjpjjIyt7HONfIqf4i3EV1zZdNt+8YmxwuLcava0Zhh0gnL5F6virBLFfaXI8UabXhg/SjdVw/wBcLp1aZy6KSXien4c8nWj7Nmv6pE2aSUn4KF4qxrWnLxHNO1xIwrs2rSnMY9hje0OYRQsIBBG6i8Xk65huuWNKkgIyst2ROp0PiHDf/rNXuKjep0ikksHBY6JpGmzST6fZQ20suD3xMDSRtphsHUFmHi3/ADqx/hf2j1ryyHxb/nVj/C/tHqY9SJ/SVg3Gt813Gn6VEDMbaKO2tLdmDGNjYGGR26uWrnFbJypypZ8sWeRlJb6UD4q6piT7jNzB6VQfDLXtJ026m0+9jbDc3jgIb4nbTZC6vs44jedvQtfUyfYitL6urMa8TtalvtaGjxE/D2AALBsdM8Bxd5AQ0eVXrlHkvT9BtIZ7mFk2qOaHSzvAdw3EexFX2abK7Ssx5qabLna8fc1ytumTE7e47LKKf1Stg17mfTOX7AXt1IJHSitrAwjPKfo/Rxxcj6JLuI4zJvsT69daPZ6bLNrnDdZDB0crQ/O6mDWMO1x6KLA5GjUdZI5ftZIRLLWytmuL5G41FHdW3q39K9O5u+YeftZbGxpkca8KBtRDBH0ucejrccT5gtZ5W5QsOWbfuUnvpBSe7IoT9Fgxyt9fSn0rzIfzvTRLuT6xqlxoXLMuo3RDry3t2Bx2tNw4NjGzo4jlkvJ/LsvN2sTS38jzbRHjXste+9zyaMzb3kHHctI8Sf8AtK7+vD+savG8IgPw7UjTEzMFf6ihaRbJkszSfTBfLLTNP02JkFhbR28bBRojaB5SdpPWVPCKQxjPxO63v+9h7XlT1HAWmGMtbkblblaegU2Kp0JEIQgBP+ymJ/2UA07T2pFG7jMY4vkYHA1z5SGgdYz/ACrz5tWDHtEVHge3VpFT9E5sPMgPUQvIZrDy53EYA0+xlFSPrYivoXfFK+4iDoZWF1e8chp2Zc9R50BW+eOWZuYtMdwADfWjzJZjAZmlrQ+Ik+8RUdgWb8rc5ajynLJY3EJms8541o+rHxvGDiyuw7wfQtujB40pY8Zcw4jS01zZG7HV2Up0LxNa5O0fXy6W/haLo4NuoQY30+nRxD/KrJ6YfQpKLzmOjPHd4q8tiHiNiunSU/Q8NoNes58qz/mDmLVeddRgt4YCIw4ts7KPvGrvnOOFXdewDyq8t8JdFDmk3tyQD3h92Kj8hWbROWNK0DN+HQMYXChmcC6Y9sjnHDqAATMV0I2zejeERcn8vDlvR2WbyHXUp4109uzO4AZR1NAosu5y5dvOVtZ/ELDNHZyycazuI8OE+ubhE9BafZ3jyrbKT5KZ2cSvtZDSn1c/yqO5tWXkRt7pkU1u8UmhkjzB3ndQeZQpYeSzimsdMdDPtF8V7R0DItdt5GXDQA64twHMd9JzCWlvkqo9e8VYHW77fQIZBO8FvxU4DQyvzmMBdmPbTyr1Lrws5fuJXyRSTWrXHuRQuBa3t4vEJ84T7Lww5fs3tleZLt7TUtuDWP8AIi4fpJU/KVxZ0yvUpfIXK91reqx6vetd8BbScZ0r/wC2lacwaCfa72LvN0rROeOXHcxaMY7cA3tqeNag4ZjSjo6/SHporDFDwAyKARxWzBlZCxmWgGwNoaAeRKBPlcC9mf5pyGg7Rnx86hy1yWUEljxML5Y5v1PlKeW1fEZbUvPxFnJVjmvHdJaSO67DHBX3/Nfl7g5/h7vi0/RZGbd2biUovb1zk/R9fc2W+ha25pR9zECyQjDpDqflBy8AeEuhB5JvLss6G1jr5Tw/kVsxfUqlNaJ5R1cq8/jmTVJNNdYm2+7dLFIJM+DSMHjK2mB2qreLf86sf4X9o9aFofK2m8vROGmxsZcSd2S5e1z3ub7uL8Md1B1KHmPk7TuZprae+kkjfbtLM0FGuc0muUl4eKV6lCaTz2JcZOOH1My1rki4ttEsNf0xrpraa0gmvItronuja58g3sJNTu7Nlm8Pud3XXD0DV5C649myuXY5wB+iefe909Ozbt0C2tBaWrLOHKIIY2w27MpOVjBlaHVcc2AG5Vu28P8ASLTWY9atyWSxvMrbYD7hr8e8xlcwptAzUr1YJuysMbWmnH4nleJXKs2oxM1zT4zJc27cl1E0Vc+IGrXtA2llTXq7FlBmfcSRC7mkdGwNjDj945kbcKMa5zR3RsFQvpakmeuZvD93Kc35Wb5FWdY5C0PWi+aeIW9281NxbAx135mFzmuPXRIyxoyJQy8oqmm88cqcs6aLXQ7G4nndQyyTBkZkd70kgLz2ANordybzW7mm1uZZLYW8ts8NcGuzNIeCWkVANcMV48XhPoccjHyXVxKwGro3FoDhuqxoIVw07S7XSYPhNOiit7YYsjYw1ze89xcS89ZxRtdiYqXfCXgeB4k/9pXf14f1jV43hH/LtR/v2fmK56zo8euaXNpd6+jJqZnxtIIykOaW1ccahQcu8tWvLNs60sJHPjkdxJnygGRzqZRRzcoAG7Koz8uCcPcn5HtJsecRsEpBkyjORszUxTQJqOq9tT7HdOH1u9j6FHA14toBFI0tDW94sOLaYYZhTBQWOhCbSTOSXN4dMG5Tmr9bN8iaGz5CC9meuDshpTsz/KgJE/7KhpNVtHtoPb7px+r3sPSpKP3jZu6N23agPE1S5dLO6Bh7jDQgdLl0W2lRhgdc1c845K0A8y4oQHakM/8AtST21Pyr31IOKXS7V7TkBjd0EEn0FeWx02n3NDtb7QGxzVYV5GshvEiPzqGvZXBQD04nZ87g2jSQWOHzgWtOb5FIuTTa/DAl+bHAe6KAZfl8q60AIQhACEIQAhCEAIQhACEIQAhCEAIQhACEIQAhCEAIQhACZFUxMLm5DlFWDoNNnkT0yEUijBfxDlHf97D2vKgHoQhACf8AZTE/7KA8DUoX292ZWYNe7O1251an0rvtdRhmaBI4RydIOAPYV0XnA4T/AIinD9NerrVdlENfuS4t6A8AH0EqQWCW8tom5nSNO4NNSfMvElklv7nujF3dY3cFA3KT3yQN4FT6wva034PKeBXifOz+1T+hCDpt2Rxh8cYIyENcT0kMbj5qKZNbnq/Nsr3Oyg+WqcoJBCEIAQhCAEIQgBCEIAQhCAEIQgBCEIAQhCAEIQgBCEIAUcBYYIjGC1mRuVp2gUwCkTY8/DZxacTKM9NmamKAchCEAJ/2UxP+ygP/2Q==;" parent="1" vertex="1">
          <mxGeometry x="80" y="40" width="56.56" height="50" as="geometry" />
        </mxCell>
      </root>
    </mxGraphModel>
  </diagram>
</mxfile>
